<?xml version="1.0" encoding="UTF-8" standalone="no"?>
<!DOCTYPE svg PUBLIC "-//W3C//DTD SVG 1.1//EN" "http://www.w3.org/Graphics/SVG/1.1/DTD/svg11.dtd">
<svg version="1.1" xmlns="http://www.w3.org/2000/svg" xmlns:xlink="http://www.w3.org/1999/xlink" preserveAspectRatio="xMidYMid meet" viewBox="0 0 640 640" width="640" height="640"><defs><path d="M275.51 258.75C276.94 258.77 280.31 258.25 282.25 259.08C283.2 259.49 282.91 259.07 289.04 259.83C295.17 260.6 294.87 260.5 297.8 261.85C300.74 263.19 312.28 278.82 312.86 291.99C313.9 315.73 295.48 335.84 271.74 336.88C248.01 337.93 227.89 319.5 226.85 295.77C226.31 283.43 231.03 272.07 239.02 263.85C241.49 261.31 246.76 261.29 249.55 260.59C255.09 259.21 258.72 259.08 266.3 258.75C270.3 258.57 272.67 258.69 275.51 258.75Z" id="bj9IIj5fm"></path><path d="M293.05 292.21C293.05 307.25 280.84 319.45 265.81 319.45C250.78 319.45 238.57 307.25 238.57 292.21C238.57 277.18 250.78 264.97 265.81 264.97C280.84 264.97 293.05 277.18 293.05 292.21Z" id="b1qKUN2DY5"></path><path d="M355.77 292.01C349.37 287 345.37 283.87 343.77 282.62C334.3 275.22 323.67 269.44 312.31 265.51C303.82 262.58 315.74 266.7 312.31 265.51C284.89 256.03 255 256.53 227.9 266.91C225.96 267.66 224.2 268.47 222.63 269.36C208.83 277.1 196.99 286.42 187.09 297.3" id="a4uh8R1Tf7"></path><path d="M187.09 296.3C188.84 299.09 189.93 300.83 190.37 301.52C201.4 319.07 218.69 331.76 238.74 337.03C253.68 340.95 232.5 335.39 238.74 337.03C283.25 348.72 330.21 330.28 354.88 291.43C354.88 291.43 354.88 291.43 354.88 291.43" id="bnPuqYDhj"></path><path d="M190.23 275.52L198.73 286.77" id="e3jthlA5jv"></path><path d="M211.98 263.85L217.73 272.1" id="b8XpI81o2"></path><path d="M238.23 248.85L241.98 262.6" id="ak338NJCr"></path><path d="M271.43 244.35L273.48 258.75" id="bjsqAlq7s"></path><path d="M305.98 247.6L302.73 261.85" id="a4CJrOAMBg"></path><path d="M332.48 260.85L326.89 272.1" id="aABpWjKe"></path><path d="" id="c1g5zf7AC7"></path><path d="M354.88 271.1L346.2 284.6" id="e1H5Ol1DRW"></path><path d="M285.68 315.02L297.35 326.35" id="h35XAbRqlz"></path><path d="M309.85 310.68L297.35 303.52" id="a45pgXzYVQ"></path><path d="M268.3 283.11C267.9 293.06 259.5 300.81 249.55 300.41C239.59 300.01 231.84 291.61 232.24 281.66C232.64 271.7 241.04 263.95 251 264.35C260.95 264.75 268.7 273.16 268.3 283.11Z" id="g1GabSKl5d"></path><path d="M240.1 302.94C240 305.33 237.98 307.19 235.59 307.1C233.2 307 231.33 304.98 231.43 302.59C231.52 300.19 233.54 298.33 235.94 298.43C238.33 298.52 240.19 300.54 240.1 302.94Z" id="boDrqirDq"></path></defs><g><g><g><use xlink:href="#bj9IIj5fm" opacity="1" fill="#b982c3" fill-opacity="1"></use><g><use xlink:href="#bj9IIj5fm" opacity="1" fill-opacity="0" stroke="#9313bf" stroke-width="2" stroke-opacity="1"></use></g></g><g><use xlink:href="#b1qKUN2DY5" opacity="1" fill="#5b1b74" fill-opacity="1.00"></use></g><g><g><filter id="shadow7622759" x="179.09" y="250.75" width="184.68" height="55.56" filterUnits="userSpaceOnUse" primitiveUnits="userSpaceOnUse"><feFlood></feFlood><feComposite in2="SourceAlpha" operator="in"></feComposite><feGaussianBlur stdDeviation="1"></feGaussianBlur><feOffset dx="0" dy="1" result="afterOffset"></feOffset><feFlood flood-color="#000000" flood-opacity="0.5"></feFlood><feComposite in2="afterOffset" operator="in"></feComposite><feMorphology operator="dilate" radius="0"></feMorphology><feComposite in2="SourceAlpha" operator="out"></feComposite></filter><path d="M355.77 292.01C349.37 287 345.37 283.87 343.77 282.62C334.3 275.22 323.67 269.44 312.31 265.51C303.82 262.58 315.74 266.7 312.31 265.51C284.89 256.03 255 256.53 227.9 266.91C225.96 267.66 224.2 268.47 222.63 269.36C208.83 277.1 196.99 286.42 187.09 297.3" id="b1NAJSpuuq" fill="none" stroke="white" filter="url(#shadow7622759)"></path></g><g><use xlink:href="#a4uh8R1Tf7" opacity="1" fill-opacity="0" stroke="#4c217b" stroke-width="2" stroke-opacity="1"></use></g></g><g><g><filter id="shadow4416569" x="178.09" y="282.43" width="187.79" height="68.07" filterUnits="userSpaceOnUse" primitiveUnits="userSpaceOnUse"><feFlood></feFlood><feComposite in2="SourceAlpha" operator="in"></feComposite><feGaussianBlur stdDeviation="1"></feGaussianBlur><feOffset dx="2" dy="-1" result="afterOffset"></feOffset><feFlood flood-color="#000000" flood-opacity="0.5"></feFlood><feComposite in2="afterOffset" operator="in"></feComposite><feMorphology operator="dilate" radius="0"></feMorphology><feComposite in2="SourceAlpha" operator="out"></feComposite></filter><path d="M187.09 296.3C188.84 299.09 189.93 300.83 190.37 301.52C201.4 319.07 218.69 331.76 238.74 337.03C253.68 340.95 232.5 335.39 238.74 337.03C283.25 348.72 330.21 330.28 354.88 291.43C354.88 291.43 354.88 291.43 354.88 291.43" id="am52cefo5" fill="none" stroke="white" filter="url(#shadow4416569)"></path></g><g><use xlink:href="#bnPuqYDhj" opacity="1" fill-opacity="0" stroke="#4c217b" stroke-width="2" stroke-opacity="1.00"></use></g></g><g><g><filter id="shadow16007109" x="182.23" y="267.52" width="25.5" height="28.25" filterUnits="userSpaceOnUse" primitiveUnits="userSpaceOnUse"><feFlood></feFlood><feComposite in2="SourceAlpha" operator="in"></feComposite><feGaussianBlur stdDeviation="1"></feGaussianBlur><feOffset dx="1" dy="-1" result="afterOffset"></feOffset><feFlood flood-color="#000000" flood-opacity="0.5"></feFlood><feComposite in2="afterOffset" operator="in"></feComposite><feMorphology operator="dilate" radius="0"></feMorphology><feComposite in2="SourceAlpha" operator="out"></feComposite></filter><path d="M190.23 275.52L198.73 286.77" id="a2zprHWB6E" fill="none" stroke="white" filter="url(#shadow16007109)"></path></g><g><use xlink:href="#e3jthlA5jv" opacity="1" fill-opacity="0" stroke="#4c217b" stroke-width="3" stroke-opacity="1"></use></g></g><g><g><filter id="shadow12929812" x="202.98" y="254.85" width="25.75" height="26.25" filterUnits="userSpaceOnUse" primitiveUnits="userSpaceOnUse"><feFlood></feFlood><feComposite in2="SourceAlpha" operator="in"></feComposite><feGaussianBlur stdDeviation="1"></feGaussianBlur><feOffset dx="2" dy="0" result="afterOffset"></feOffset><feFlood flood-color="#000000" flood-opacity="0.5"></feFlood><feComposite in2="afterOffset" operator="in"></feComposite><feMorphology operator="dilate" radius="0"></feMorphology><feComposite in2="SourceAlpha" operator="out"></feComposite></filter><path d="M211.98 263.85L217.73 272.1" id="a2N8m6fvMu" fill="none" stroke="white" filter="url(#shadow12929812)"></path></g><g><use xlink:href="#b8XpI81o2" opacity="1" fill-opacity="0" stroke="#4c217b" stroke-width="3" stroke-opacity="1"></use></g></g><g><g><use xlink:href="#ak338NJCr" opacity="1" fill-opacity="0" stroke="#4c217b" stroke-width="3" stroke-opacity="1"></use></g></g><g><g><filter id="shadow129252" x="263.43" y="236.35" width="19.05" height="31.4" filterUnits="userSpaceOnUse" primitiveUnits="userSpaceOnUse"><feFlood></feFlood><feComposite in2="SourceAlpha" operator="in"></feComposite><feGaussianBlur stdDeviation="1"></feGaussianBlur><feOffset dx="1" dy="1" result="afterOffset"></feOffset><feFlood flood-color="#000000" flood-opacity="0.5"></feFlood><feComposite in2="afterOffset" operator="in"></feComposite><feMorphology operator="dilate" radius="0"></feMorphology><feComposite in2="SourceAlpha" operator="out"></feComposite></filter><path d="M271.43 244.35L273.48 258.75" id="j1kqoj7Ph9" fill="none" stroke="white" filter="url(#shadow129252)"></path></g><g><use xlink:href="#bjsqAlq7s" opacity="1" fill-opacity="0" stroke="#4c217b" stroke-width="3" stroke-opacity="1"></use></g></g><g><g><use xlink:href="#a4CJrOAMBg" opacity="1" fill-opacity="0" stroke="#4c217b" stroke-width="3" stroke-opacity="1"></use></g></g><g><g><filter id="shadow14973025" x="318.89" y="252.85" width="22.58" height="28.25" filterUnits="userSpaceOnUse" primitiveUnits="userSpaceOnUse"><feFlood></feFlood><feComposite in2="SourceAlpha" operator="in"></feComposite><feGaussianBlur stdDeviation="1"></feGaussianBlur><feOffset dx="-1" dy="-1" result="afterOffset"></feOffset><feFlood flood-color="#000000" flood-opacity="0.5"></feFlood><feComposite in2="afterOffset" operator="in"></feComposite><feMorphology operator="dilate" radius="0"></feMorphology><feComposite in2="SourceAlpha" operator="out"></feComposite></filter><path d="M332.48 260.85L326.89 272.1" id="fpHu1YSLq" fill="none" stroke="white" filter="url(#shadow14973025)"></path></g><g><use xlink:href="#aABpWjKe" opacity="1" fill-opacity="0" stroke="#4c217b" stroke-width="3" stroke-opacity="1"></use></g></g><g><g><use xlink:href="#c1g5zf7AC7" opacity="1" fill-opacity="0" stroke="#4c217b" stroke-width="3" stroke-opacity="1"></use></g></g><g><g><filter id="shadow13635899" x="338.2" y="263.1" width="25.68" height="30.5" filterUnits="userSpaceOnUse" primitiveUnits="userSpaceOnUse"><feFlood></feFlood><feComposite in2="SourceAlpha" operator="in"></feComposite><feGaussianBlur stdDeviation="1"></feGaussianBlur><feOffset dx="-1" dy="-1" result="afterOffset"></feOffset><feFlood flood-color="#000000" flood-opacity="0.5"></feFlood><feComposite in2="afterOffset" operator="in"></feComposite><feMorphology operator="dilate" radius="0"></feMorphology><feComposite in2="SourceAlpha" operator="out"></feComposite></filter><path d="M354.88 271.1L346.2 284.6" id="a3VuyklcH" fill="none" stroke="white" filter="url(#shadow13635899)"></path></g><g><use xlink:href="#e1H5Ol1DRW" opacity="1" fill-opacity="0" stroke="#4c217b" stroke-width="3" stroke-opacity="1"></use></g></g><g><g><use xlink:href="#h35XAbRqlz" opacity="1" fill-opacity="0" stroke="#9313bf" stroke-width="3" stroke-opacity="1"></use></g></g><g><g><use xlink:href="#a45pgXzYVQ" opacity="1" fill-opacity="0" stroke="#9313bf" stroke-width="3" stroke-opacity="1"></use></g></g><g><use xlink:href="#g1GabSKl5d" opacity="0.6" fill="#d2b1d7" fill-opacity="1.00"></use></g><g><use xlink:href="#boDrqirDq" opacity="0.6" fill="#d1b1d6" fill-opacity="1"></use></g></g></g></svg>