<?xml version="1.0" ?><!DOCTYPE svg  PUBLIC '-//W3C//DTD SVG 1.1 Tiny//EN'  'http://www.w3.org/Graphics/SVG/1.1/DTD/svg11-tiny.dtd'><svg baseProfile="tiny" height="128px" id="Layer_1" overflow="scroll" version="1.1" viewBox="0 0 128 128" width="128px" xml:space="preserve" xmlns="http://www.w3.org/2000/svg" xmlns:xlink="http://www.w3.org/1999/xlink"><g><path d="M86.7,42.6l-1.6,2.7c-0.1,0.2-0.3,0.5-0.4,0.8L73.6,71.3l-9.1,20.7h-0.2c-0.1-5.9-4.9-10.6-10.8-10.6h-0.2   c-4.5,0-8.4,2.8-10,6.7V36.6c0-5.5,4.5-10,10-10h0.2c5.5,0,10,4.5,10,10v8.7h1.7v-8.7c0-6.5-5.3-11.7-11.7-11.7h-0.2   c-6.5,0-11.7,5.3-11.7,11.7v55.8c0,6.5,5.3,11.7,11.7,11.7h0.2c5.2,0,9.7-3.4,11.2-8.2l10.5-23.9l11-25c0.1-0.3,0.3-0.7,0.4-1   l0.8-3C87.4,42.5,86.9,42.3,86.7,42.6z M44.1,92.2c0-5.1,4.1-9.2,9.2-9.2h0.2c5.1,0,9.2,4.1,9.2,9.2v0.2c0,5.1-4.1,9.2-9.2,9.2   h-0.2c-5.1,0-9.2-4.1-9.2-9.2V92.2z" fill="#7ACCCE"/><path d="M53.5,23.9h-0.3c-6.7,0-12.2,5.2-12.6,11.8v13.4h5c4.1,0,7.4-3.3,7.4-7.4v-3.7c-0.6-0.1-1-0.6-1-1.2   c0-0.7,0.6-1.3,1.3-1.3c0.7,0,1.3,0.6,1.3,1.3c0,0.6-0.4,1.1-0.9,1.2v3.7c0,4.1,3.3,7.4,7.4,7.4h5V35.7   C65.7,29.2,60.2,23.9,53.5,23.9" fill="#F7B2B8"/><path d="M87,42.5c-0.1,0-0.2,0-0.3,0.2l-1.6,2.7c-0.1,0.2-0.3,0.5-0.4,0.8L73.6,71.3l-9.1,20.7h-0.2   c-0.1-5.9-5-10.6-10.9-10.6h-0.1V83h0.1c5.1,0,9.2,4.1,9.2,9.2v0.2c0,5.1-4.1,9.2-9.2,9.2h-0.1v1.7v0.9h0.1c5.2,0,9.7-3.5,11.2-8.2   l10.5-23.9l11-25c0.1-0.3,0.3-0.7,0.4-1l0.8-3C87.4,42.6,87.2,42.5,87,42.5z" fill="#71B8BC"/><path d="M53.5,23.9h-0.1v11.6c0.7,0,1.2,0.6,1.2,1.3c0,0.6-0.4,1.1-0.9,1.2v3.7c0,4.1,3.3,7.4,7.4,7.4h5V35.7   C65.7,29.2,60.2,23.9,53.5,23.9" fill="#F496A7"/></g></svg>