<?xml version="1.0" ?><!DOCTYPE svg  PUBLIC '-//W3C//DTD SVG 1.1 Tiny//EN'  'http://www.w3.org/Graphics/SVG/1.1/DTD/svg11-tiny.dtd'><svg baseProfile="tiny" height="128px" id="Layer_1" version="1.1" viewBox="0 0 128 128" width="128px" xml:space="preserve" xmlns="http://www.w3.org/2000/svg" xmlns:xlink="http://www.w3.org/1999/xlink"><g><path d="M101.1,60.7H26.9v33.6c0,0.8,0.6,1.4,1.4,1.4h71.4c0.8,0,1.4-0.6,1.4-1.4V60.7z" fill="#7ACCCE"/><path d="M104.3,60.7H23.7V52c0-0.7,0.5-1.2,1.2-1.2h78.1c0.7,0,1.2,0.5,1.2,1.2V60.7z" fill="#F7B2B8"/><polygon fill="#F7B2B8" points="56.8,60.7 30.2,95.7 40.2,95.7 66.9,60.7  "/><polygon fill="#F7B2B8" points="33.4,60.7 26.9,69.3 26.9,82.5 43.4,60.7  "/><polygon fill="#F7B2B8" points="101.1,64 77,95.7 87.1,95.7 101.1,77.2  "/><polygon fill="#F7B2B8" points="80.2,60.7 53.6,95.7 63.6,95.7 90.3,60.7  "/><rect fill="#F27550" height="10" width="7.2" x="60.4" y="50.8"/><path d="M78.4,50.3c2.9-1.3,5.8-4.7,5.4-9.3c-0.3-4.5-3.9-8.3-8.4-8.7c-0.3,0-0.6,0-0.9,0c-3.1,0-5.1,1.4-5.9,2   c-2,1.7-3.2,4.3-4.3,6.8c-0.1,0.2-0.2,0.4-0.3,0.7c-0.5-0.9-0.9-1.7-1.2-2.4c-0.6-1.3-1.2-2.6-2.3-3.9c-1-1.2-3.3-3.2-7-3.2   c-0.3,0-0.6,0-0.9,0c-3.3,0.3-6.1,2.3-7.5,5.4c-1.5,3.2-1.2,6.7,0.8,9.4c0.7,1,2,2.2,3.3,2.9c0.7,0.4,1.6,0.6,2.6,0.8h7.8l-10,18.4   h5.9l8-18.4h1.1l8,18.4h5.9l-10-18.4h8C77.1,50.8,77.8,50.6,78.4,50.3z M56.8,46.2c-0.8,0.1-1.5,0.1-2.2,0.1   c-1.1,0-1.9-0.1-2.7-0.4c-2.1-0.8-2.9-3.1-2.6-5.1c0.3-1.7,1.6-3.5,4.1-3.5c0.2,0,0.4,0,0.7,0c2.3,0.3,3.3,2.3,4.2,4.3   c0.2,0.3,0.3,0.7,0.5,1c0.5,1,1.1,2.1,1.7,3.5c-0.4,0-0.8,0-1.2,0C58.5,46,57.6,46.1,56.8,46.2z M73,46.2c-0.7,0-1.4,0-2.1,0   c-0.8,0-1.6-0.1-2.4-0.1c-0.3,0-0.6,0-0.9,0c0-0.1,0.1-0.2,0.1-0.3c0.5-1.1,1-2.4,1.6-3.5c0.2-0.4,0.4-0.7,0.6-1.1   c0.5-1.1,1.1-2.2,1.8-2.8c0.8-0.7,1.7-1.1,2.7-1.1c2.3,0,4.3,1.8,4.5,3.8c0.3,3.1-2,4.8-4.2,5C74.2,46.2,73.7,46.2,73,46.2z" fill="#F48053"/><path d="M101.1,60.7H90.3L64,95.2v0.5h35.7c0.8,0,1.4-0.6,1.4-1.4V77.2L87.1,95.7H77L101.1,64V60.7z M80.2,60.7   h-6.5l2.7,5L80.2,60.7z M68.8,60.7h-1.9L64,64.4V82l9.7-12.7h-1.2L68.8,60.7z" fill="#71B8BC"/><path d="M103.1,50.8H68.3l5.4,10h30.5V52C104.3,51.3,103.7,50.8,103.1,50.8 M67.6,57.9v2.8H64h4.8L67.6,57.9z" fill="#F496A7"/><polygon fill="#F496A7" points="66.9,60.7 64,60.7 64,64.4  "/><polygon fill="#F496A7" points="101.1,64 101.1,64 77,95.7 87.1,95.7 101.1,77.2  "/><polygon fill="#F496A7" points="90.3,60.7 80.2,60.7 76.5,65.7 78.4,69.3 73.7,69.3 64,82 64,95.2  "/><path d="M78.4,50.3c2.9-1.3,5.8-4.7,5.4-9.3c-0.3-4.5-3.9-8.3-8.4-8.7c-0.3,0-0.6,0-0.9,0c-3.1,0-5.1,1.4-5.9,2   c-2,1.7-3.2,4.3-4.3,6.8c-0.1,0.2-0.2,0.4-0.3,0.7v9v10h3.5v-2.8l1.2,2.8v0l3.7,8.6h5.9l-2-3.6l-2.7-5l0,0l-5.4-10H77   C77.5,50.6,77.9,50.5,78.4,50.3z M73,46.2c-0.7,0-1.4,0-2.1,0c-0.8,0-1.6-0.1-2.4-0.1c-0.3,0-0.6,0-0.9,0c0-0.1,0.1-0.2,0.1-0.3   c0.5-1.1,1-2.4,1.6-3.5c0.2-0.4,0.4-0.7,0.6-1.1c0.5-1.1,1.1-2.2,1.8-2.8c0.8-0.7,1.7-1.1,2.7-1.1c2.3,0,4.3,1.8,4.5,3.8   c0.3,3.1-2,4.8-4.2,5C74.2,46.2,73.7,46.2,73,46.2z" fill="#E27650"/></g></svg>