<?xml version="1.0" ?><!DOCTYPE svg  PUBLIC '-//W3C//DTD SVG 1.1//EN'  'http://www.w3.org/Graphics/SVG/1.1/DTD/svg11.dtd'><svg enable-background="new 0 0 64 64" id="Layer_1" version="1.1" viewBox="0 0 64 64" xml:space="preserve" xmlns="http://www.w3.org/2000/svg" xmlns:xlink="http://www.w3.org/1999/xlink"><g><path d="M18.9,39.5c-3.7,0-6.7,3-6.7,6.7c0,3.7,3,6.7,6.7,6.7s6.7-3,6.7-6.7C25.6,42.5,22.6,39.5,18.9,39.5z    M18.9,49.2c-1.7,0-3.1-1.4-3.1-3.1c0-1.7,1.4-3.1,3.1-3.1c1.7,0,3.1,1.4,3.1,3.1C22,47.8,20.6,49.2,18.9,49.2z" fill="#EDA86B"/><circle cx="54" cy="13.5" fill="#EA7878" r="2.3"/><path d="M9.6,39.1c0.3-0.6,0.3-1.3,0.1-2c-0.9,0.9-1.7,2-2.3,3.2C8.4,40.2,9.2,39.8,9.6,39.1z" fill="#FCE2B2"/><path d="M45.6,39.5c-3.7,0-6.7,3-6.7,6.7c0,3.7,3,6.7,6.7,6.7c3.7,0,6.7-3,6.7-6.7C52.2,42.5,49.3,39.5,45.6,39.5z    M45.6,49.2c-1.7,0-3.1-1.4-3.1-3.1c0-1.7,1.4-3.1,3.1-3.1c1.7,0,3.1,1.4,3.1,3.1C48.7,47.8,47.3,49.2,45.6,49.2z" fill="#EDA86B"/><path d="M28.4,31.8h18.6c-3.8-3-7.4-4.6-10.5-4.6C32.2,27.2,29.6,30,28.4,31.8z" fill="#FCE2B2"/><path d="M55.3,36.2l-0.1-5.5c-2.2-1.6-13.6-9.5-22.8-7c-4.3,1.1-7.6,4.4-9.7,9.8c-0.2,0.4-0.6,0.7-1.1,0.6   c-0.1,0-5.9-1-10.3,1.7c0.4,1,0.8,2.7,0,4.2c-0.8,1.4-2.3,2.2-4.7,2.4c-0.2,0.8-0.4,1.7-0.5,2.7h4.1c0.5-4.3,4.2-7.7,8.6-7.7   c4.4,0,8.1,3.4,8.6,7.7H37c0.5-4.3,4.2-7.7,8.6-7.7s8.1,3.4,8.6,7.7h3.2c0.5-0.7,1.4-3.2-1.9-8.4C55.4,36.6,55.3,36.4,55.3,36.2z    M50.6,33.1c-0.1,0.4-0.5,0.6-0.9,0.6H26.6c-0.3,0-0.7-0.2-0.8-0.5c-0.2-0.3-0.2-0.6-0.1-1c0.1-0.3,3.3-7.2,10.7-7.2   c4.2,0,8.9,2.3,13.9,6.8C50.6,32.3,50.7,32.7,50.6,33.1z" fill="#EA7878"/><path d="M57.2,30.2c0-0.3-0.1-0.6-0.4-0.8c-0.1-0.1-0.8-0.6-1.9-1.4V17.6c1.9-0.5,3.3-2.1,3.3-4.1   c0-2.4-1.9-4.3-4.3-4.3c-2.4,0-4.3,1.9-4.3,4.3c0,2,1.4,3.7,3.3,4.1v9.2c-4.9-2.9-13.4-7-21-5C27.2,23,23.6,26.5,21.2,32   c-2.1-0.2-7.9-0.5-12.2,3c-3,2.4-4.7,6.1-4.9,11c0,0.3,0.1,0.5,0.3,0.7c0.2,0.2,0.4,0.3,0.7,0.3h5.2c0.5,4.3,4.2,7.7,8.6,7.7   c4.4,0,8.1-3.4,8.6-7.7H37c0.5,4.3,4.2,7.7,8.6,7.7s8.1-3.4,8.6-7.7h3.7c0.2,0,0.5-0.1,0.7-0.2c0.2-0.1,3.6-3.3-1.2-11L57.2,30.2z    M51.7,13.5c0-1.3,1-2.3,2.3-2.3c1.3,0,2.3,1,2.3,2.3c0,1.3-1,2.3-2.3,2.3C52.7,15.8,51.7,14.7,51.7,13.5z M9.7,37.1   c0.2,0.6,0.2,1.4-0.1,2c-0.4,0.7-1.2,1-2.2,1.2C8,39.1,8.8,38,9.7,37.1z M18.9,52.8c-3.7,0-6.7-3-6.7-6.7c0-3.7,3-6.7,6.7-6.7   s6.7,3,6.7,6.7C25.6,49.8,22.6,52.8,18.9,52.8z M45.6,52.8c-3.7,0-6.7-3-6.7-6.7c0-3.7,3-6.7,6.7-6.7c3.7,0,6.7,3,6.7,6.7   C52.2,49.8,49.3,52.8,45.6,52.8z M57.4,45.1h-3.2c-0.5-4.3-4.2-7.7-8.6-7.7s-8.1,3.4-8.6,7.7h-9.5c-0.5-4.3-4.2-7.7-8.6-7.7   c-4.4,0-8.1,3.4-8.6,7.7H6.2c0.1-1,0.2-1.8,0.5-2.7c2.3-0.2,3.9-1,4.7-2.4c0.8-1.5,0.4-3.2,0-4.2c4.4-2.7,10.2-1.8,10.3-1.7   c0.5,0.1,0.9-0.2,1.1-0.6c2.2-5.3,5.4-8.6,9.7-9.8c9.2-2.5,20.6,5.4,22.8,7l0.1,5.5c0,0.2,0.1,0.4,0.2,0.5   C58.7,41.9,57.8,44.4,57.4,45.1z" fill="#1E0E10"/><path d="M36.4,25.2c-7.4,0-10.6,6.9-10.7,7.2c-0.1,0.3-0.1,0.7,0.1,1c0.2,0.3,0.5,0.5,0.8,0.5h23.1   c0.4,0,0.8-0.3,0.9-0.6c0.1-0.4,0-0.8-0.3-1.1C45.3,27.5,40.6,25.2,36.4,25.2z M28.4,31.8c1.2-1.8,3.9-4.6,8.1-4.6   c3.2,0,6.7,1.5,10.5,4.6H28.4z" fill="#1E0E10"/><path d="M45.6,43c-1.7,0-3.1,1.4-3.1,3.1c0,1.7,1.4,3.1,3.1,3.1c1.7,0,3.1-1.4,3.1-3.1C48.7,44.4,47.3,43,45.6,43z    M45.6,47.2c-0.6,0-1.1-0.5-1.1-1.1c0-0.6,0.5-1.1,1.1-1.1c0.6,0,1.1,0.5,1.1,1.1C46.7,46.7,46.2,47.2,45.6,47.2z" fill="#1E0E10"/><path d="M18.9,43c-1.7,0-3.1,1.4-3.1,3.1c0,1.7,1.4,3.1,3.1,3.1c1.7,0,3.1-1.4,3.1-3.1C22,44.4,20.6,43,18.9,43z    M18.9,47.2c-0.6,0-1.1-0.5-1.1-1.1c0-0.6,0.5-1.1,1.1-1.1c0.6,0,1.1,0.5,1.1,1.1C20,46.7,19.5,47.2,18.9,47.2z" fill="#1E0E10"/></g></svg>